<svg width="33" height="32" viewBox="0 0 33 32" fill="none" xmlns="http://www.w3.org/2000/svg">
<path d="M26.7936 30.8626C28.9023 30.0478 30.5694 28.3807 31.3841 26.2721C31.7698 25.2732 32.0398 24.1335 32.113 22.4665C32.1304 22.076 32.1439 21.7482 32.1564 21.4194V10.2812C32.1477 10.0488 32.1381 9.80678 32.1256 9.53489C32.0523 7.86782 31.7823 6.72237 31.3966 5.72927C30.9984 4.67542 30.3852 3.73148 29.583 2.94761C28.7982 2.15023 27.8485 1.53123 26.8062 1.13977C25.8073 0.754096 24.6676 0.484126 23.0006 0.410848C21.321 0.330821 20.7878 0.3125 16.529 0.3125C12.2702 0.3125 11.736 0.330821 10.0632 0.404098C8.39612 0.477376 7.25068 0.747346 6.25757 1.13302C5.20372 1.53122 4.25979 2.14444 3.47495 2.94761C2.67853 3.73245 2.05953 4.68217 1.66711 5.72348C1.28144 6.72237 1.01147 7.86203 0.938189 9.5291C0.858162 11.2087 0.839844 11.7419 0.839844 16.0016C0.839844 20.2614 0.858161 20.7946 0.931439 22.4674C1.00472 24.1345 1.27469 25.2809 1.66132 26.2731C2.05953 27.3269 2.67853 28.2708 3.47495 29.0557C4.25979 29.8521 5.20951 30.4721 6.25179 30.8635C7.25068 31.2492 8.39034 31.5192 10.0574 31.5924C11.7303 31.6667 12.2634 31.685 16.5232 31.685C20.7829 31.685 21.3152 31.6667 22.989 31.5924C24.6561 31.5192 25.8005 31.2482 26.7936 30.8626ZM16.5348 28.8648C12.3483 28.8648 11.846 28.8464 10.1972 28.7732C8.66513 28.7057 7.83786 28.4482 7.28635 28.2342C6.6066 27.9825 5.9876 27.5843 5.4843 27.0637C4.96364 26.5546 4.56447 25.9423 4.31379 25.2616C4.09974 24.7101 3.8423 23.8761 3.77481 22.3508C3.70153 20.6962 3.68321 20.1997 3.68321 16.0132C3.68321 11.8267 3.70153 11.3244 3.77481 9.67662C3.8423 8.14454 4.09974 7.31727 4.31379 6.76576C4.56544 6.08505 4.96364 5.46604 5.49105 4.96371C5.99917 4.44305 6.61239 4.04484 7.29214 3.79319C7.84365 3.57914 8.67766 3.32171 10.203 3.25421C11.8575 3.18094 12.3541 3.16262 16.5396 3.16262C20.7251 3.16262 21.2284 3.18094 22.8771 3.25421C24.4092 3.32171 25.2365 3.57914 25.788 3.79319C26.4678 4.04484 27.0868 4.44305 27.5891 4.96371C28.1098 5.47279 28.5089 6.08505 28.7596 6.76576C28.9737 7.31727 29.2311 8.15032 29.2986 9.67662C29.3719 11.3312 29.3902 11.8277 29.3902 16.0132C29.3902 20.1987 29.3719 20.6895 29.2986 22.344C29.2311 23.8761 28.9737 24.7034 28.7596 25.2549C28.2322 26.6221 27.1475 27.7068 25.7813 28.2332C25.2297 28.4473 24.3967 28.7047 22.8704 28.7722C21.2159 28.8455 20.7203 28.8648 16.5348 28.8648Z" fill="#0D0D0D"/>
<path d="M16.5293 7.94116C12.0796 7.94116 8.46973 11.5511 8.46973 16.0007C8.46973 20.4504 12.0796 24.0603 16.5293 24.0603C20.979 24.0603 24.5879 20.4504 24.5879 16.0007C24.5879 11.5511 20.978 7.94116 16.5293 7.94116ZM16.5293 21.2276C13.6426 21.2276 11.3015 18.8865 11.3015 15.9998C11.3015 13.113 13.6426 10.772 16.5293 10.772C19.4161 10.772 21.7571 13.113 21.7571 15.9998C21.7571 18.8865 19.4161 21.2276 16.5293 21.2276Z" fill="#0D0D0D"/>
<path d="M26.7861 7.62253C26.7861 6.58314 25.9434 5.74141 24.904 5.74141C23.8647 5.74141 23.0229 6.5841 23.0229 7.62253C23.0229 8.66095 23.8656 9.50364 24.904 9.50364C25.9425 9.50364 26.7861 8.66191 26.7861 7.62253Z" fill="#0D0D0D"/>
</svg>
